<?xml version="1.0" encoding="UTF-8" standalone="no"?>
<!-- Uploaded to: SVG Repo, www.svgrepo.com, Generator: SVG Repo Mixer Tools -->

<svg
   fill="#000000"
   height="56.004307"
   width="63.999882"
   version="1.1"
   id="Layer_1"
   viewBox="0 0 40.964084 35.846397"
   xml:space="preserve"
   sodipodi:docname="backward.svg"
   inkscape:version="1.2.2 (b0a8486541, 2022-12-01)"
   xmlns:inkscape="http://www.inkscape.org/namespaces/inkscape"
   xmlns:sodipodi="http://sodipodi.sourceforge.net/DTD/sodipodi-0.dtd"
   xmlns="http://www.w3.org/2000/svg"
   xmlns:svg="http://www.w3.org/2000/svg"><defs
   id="defs66" /><sodipodi:namedview
   id="namedview64"
   pagecolor="#ffffff"
   bordercolor="#000000"
   borderopacity="0.25"
   inkscape:showpageshadow="2"
   inkscape:pageopacity="0.0"
   inkscape:pagecheckerboard="0"
   inkscape:deskcolor="#d1d1d1"
   showgrid="false"
   inkscape:zoom="1.28375"
   inkscape:cx="32.71665"
   inkscape:cy="28.042843"
   inkscape:window-width="2494"
   inkscape:window-height="1371"
   inkscape:window-x="66"
   inkscape:window-y="32"
   inkscape:window-maximized="1"
   inkscape:current-layer="Layer_1" />
<g
   id="g61"
   transform="matrix(0.08,0,0,0.08,-6e-5,-2.5588769)">
	<g
   id="g59">
		<path
   d="m 510.207,414.676 c -2.32,-23.264 -6.805,-47.255 -14.019,-71.608 C 461.49,226.023 355.26,143.933 234.667,138.804 V 53.362 c 0,-19.006 -22.979,-28.524 -36.418,-15.085 l -192,192 c -8.331,8.331 -8.331,21.839 0,30.17 l 192,192 c 13.439,13.439 36.418,3.921 36.418,-15.085 V 327.656 c 48.213,-4.823 103.873,7.119 157.335,48.352 29.572,22.808 56.566,53.666 80.333,93.599 11.086,18.627 39.665,10.765 39.665,-10.911 0.005,-0.959 0.005,-0.959 0.025,-2.725 0.14,-13.282 -0.24,-25.468 -1.818,-41.295 z M 418.059,342.222 C 351.508,290.894 281.304,277.89 220.875,286.346 c -5.85,0.818 -10.162,1.676 -12.758,2.331 C 198.641,291.067 192,299.59 192,309.363 V 385.86 L 51.503,245.362 192,104.866 v 55.163 c 0,12.07 10.005,21.737 22.069,21.321 0.863,-0.03 1.551,-0.045 3.33,-0.076 108.78,-2.351 206.919,69.472 237.882,173.917 2.832,9.56 5.193,19.068 7.124,28.488 -14.036,-15.704 -28.841,-29.499 -44.346,-41.457 z"
   id="path57" />
	</g>
</g>
</svg>
