<?xml version="1.0" encoding="UTF-8" standalone="no"?>
<!-- Uploaded to: SVG Repo, www.svgrepo.com, Generator: SVG Repo Mixer Tools -->

<svg
   fill="#000000"
   height="49.858849"
   width="80"
   version="1.1"
   id="Capa_1"
   viewBox="0 0 46.05 28.7"
   xml:space="preserve"
   sodipodi:docname="gear.svg"
   inkscape:version="1.2.2 (b0a8486541, 2022-12-01)"
   xmlns:inkscape="http://www.inkscape.org/namespaces/inkscape"
   xmlns:sodipodi="http://sodipodi.sourceforge.net/DTD/sodipodi-0.dtd"
   xmlns="http://www.w3.org/2000/svg"
   xmlns:svg="http://www.w3.org/2000/svg"><defs
   id="defs66" /><sodipodi:namedview
   id="namedview64"
   pagecolor="#ffffff"
   bordercolor="#000000"
   borderopacity="0.25"
   inkscape:showpageshadow="2"
   inkscape:pageopacity="0.0"
   inkscape:pagecheckerboard="0"
   inkscape:deskcolor="#d1d1d1"
   showgrid="false"
   inkscape:zoom="1.28375"
   inkscape:cx="40.506329"
   inkscape:cy="25.70594"
   inkscape:window-width="2494"
   inkscape:window-height="1371"
   inkscape:window-x="66"
   inkscape:window-y="32"
   inkscape:window-maximized="1"
   inkscape:current-layer="Capa_1" />
<g
   id="g61"
   transform="matrix(0.1,0,0,0.1,0,-8.675)">
	<path
   d="m 123.5,142.75 c -37.22,0 -67.5,30.28 -67.5,67.5 0,37.22 30.28,67.5 67.5,67.5 37.22,0 67.5,-30.28 67.5,-67.5 0,-37.22 -30.28,-67.5 -67.5,-67.5 z m 0,120 c -28.948,0 -52.5,-23.551 -52.5,-52.5 0,-28.949 23.552,-52.5 52.5,-52.5 28.948,0 52.5,23.551 52.5,52.5 0,28.949 -23.552,52.5 -52.5,52.5 z"
   id="path47" />
	<path
   d="m 224.97,272.829 -8.555,-8.555 c 4.882,-8.357 8.574,-17.24 11.025,-26.524 h 12.06 c 4.143,0 7.5,-3.358 7.5,-7.5 v -40 c 0,-4.142 -3.357,-7.5 -7.5,-7.5 h -12.06 c -2.451,-9.285 -6.144,-18.167 -11.025,-26.524 l 8.555,-8.555 c 2.929,-2.929 2.929,-7.678 0,-10.606 l -28.284,-28.284 c -2.93,-2.929 -7.678,-2.929 -10.607,0 l -8.554,8.554 c -8.356,-4.881 -17.239,-8.573 -26.524,-11.025 V 94.25 c 0,-4.142 -3.357,-7.5 -7.5,-7.5 h -40 c -4.143,0 -7.5,3.358 -7.5,7.5 v 12.06 c -9.285,2.452 -18.168,6.144 -26.525,11.025 l -8.554,-8.554 c -1.407,-1.407 -3.314,-2.197 -5.304,-2.197 -1.99,0 -3.896,0.79 -5.304,2.197 L 22.03,137.064 c -2.929,2.929 -2.929,7.678 0,10.606 l 8.555,8.555 c -4.882,8.356 -8.574,17.239 -11.025,26.524 H 7.5 c -4.143,0 -7.5,3.358 -7.5,7.5 v 40 c 0,4.142 3.357,7.5 7.5,7.5 h 12.06 c 2.451,9.285 6.144,18.168 11.025,26.524 l -8.555,8.555 c -2.929,2.929 -2.929,7.678 0,10.606 l 28.283,28.284 c 1.407,1.407 3.314,2.197 5.304,2.197 1.99,0 3.896,-0.79 5.304,-2.197 l 8.554,-8.554 c 8.357,4.881 17.24,8.573 26.525,11.025 v 12.06 c 0,4.142 3.357,7.5 7.5,7.5 h 40 c 4.143,0 7.5,-3.358 7.5,-7.5 v -12.06 c 9.285,-2.452 18.168,-6.144 26.524,-11.025 l 8.554,8.554 c 2.93,2.929 7.678,2.929 10.607,0 l 28.284,-28.284 c 2.929,-2.927 2.929,-7.676 0.001,-10.605 z m -10.829,-44.071 c -2.349,11.573 -6.888,22.497 -13.491,32.469 -1.97,2.974 -1.572,6.923 0.949,9.444 l 7.461,7.46 -17.678,17.678 -7.46,-7.46 c -2.524,-2.522 -6.472,-2.918 -9.444,-0.95 -9.972,6.603 -20.896,11.143 -32.47,13.492 -3.496,0.71 -6.008,3.783 -6.008,7.35 v 10.508 h -25 v -10.508 c 0,-3.567 -2.513,-6.641 -6.008,-7.35 -11.574,-2.35 -22.499,-6.889 -32.471,-13.492 -2.973,-1.968 -6.922,-1.572 -9.444,0.95 l -7.46,7.46 -17.677,-17.677 7.461,-7.46 c 2.521,-2.521 2.919,-6.471 0.949,-9.444 -6.603,-9.971 -11.143,-20.896 -13.493,-32.47 -0.709,-3.495 -3.783,-6.007 -7.35,-6.007 H 15 v -25 h 10.508 c 3.566,0 6.641,-2.512 7.35,-6.007 2.351,-11.574 6.891,-22.499 13.493,-32.47 1.97,-2.974 1.572,-6.923 -0.949,-9.444 l -7.461,-7.46 17.677,-17.677 7.46,7.46 c 2.522,2.522 6.472,2.918 9.444,0.95 9.972,-6.603 20.896,-11.143 32.471,-13.492 3.495,-0.709 6.008,-3.783 6.008,-7.35 V 101.75 h 25 v 10.508 c 0,3.567 2.512,6.64 6.008,7.35 11.574,2.35 22.498,6.889 32.47,13.492 2.973,1.968 6.922,1.572 9.444,-0.95 l 7.46,-7.46 17.678,17.678 -7.461,7.46 c -2.521,2.521 -2.919,6.471 -0.949,9.444 6.604,9.972 11.143,20.896 13.491,32.469 0.71,3.496 3.783,6.008 7.351,6.008 H 232 v 25 h -10.509 c -3.567,0.001 -6.64,2.513 -7.35,6.009 z"
   id="path49" />
	<path
   d="m 351.5,294.75 h -9.021 c -1.317,-9.703 -5.143,-18.615 -10.813,-26.059 l 6.392,-6.393 c 2.929,-2.929 2.929,-7.678 -10e-4,-10.606 -2.928,-2.93 -7.677,-2.929 -10.606,0 l -6.392,6.392 c -7.444,-5.67 -16.357,-9.496 -26.059,-10.813 v -9.021 c 0,-4.142 -3.357,-7.5 -7.5,-7.5 -4.143,0 -7.5,3.358 -7.5,7.5 v 9.021 c -9.703,1.317 -18.615,5.143 -26.059,10.813 l -6.392,-6.392 c -2.929,-2.929 -7.678,-2.93 -10.606,0 -2.93,2.929 -2.93,7.677 -0.001,10.606 l 6.392,6.393 c -5.67,7.444 -9.496,16.356 -10.813,26.059 H 223.5 c -4.143,0 -7.5,3.358 -7.5,7.5 0,4.142 3.357,7.5 7.5,7.5 h 9.021 c 1.317,9.703 5.143,18.615 10.813,26.059 l -6.392,6.393 c -2.929,2.929 -2.929,7.678 0.001,10.606 1.464,1.465 3.384,2.197 5.303,2.197 1.919,0 3.839,-0.732 5.304,-2.197 l 6.392,-6.392 c 7.444,5.67 16.357,9.496 26.059,10.813 v 9.021 c 0,4.142 3.357,7.5 7.5,7.5 4.143,0 7.5,-3.358 7.5,-7.5 v -9.021 c 9.703,-1.317 18.615,-5.143 26.059,-10.813 l 6.392,6.392 c 1.465,1.465 3.384,2.197 5.304,2.197 1.919,0 3.839,-0.732 5.303,-2.197 2.93,-2.929 2.93,-7.677 10e-4,-10.606 l -6.392,-6.393 c 5.67,-7.444 9.496,-16.356 10.813,-26.059 h 9.021 c 4.143,0 7.5,-3.358 7.5,-7.5 0,-4.142 -3.359,-7.5 -7.502,-7.5 z m -64,48 c -22.332,0 -40.5,-18.168 -40.5,-40.5 0,-22.332 18.168,-40.5 40.5,-40.5 22.332,0 40.5,18.168 40.5,40.5 0,22.332 -18.168,40.5 -40.5,40.5 z"
   id="path51" />
	<path
   d="m 123.5,174.75 c -19.575,0 -35.5,15.925 -35.5,35.5 0,19.575 15.925,35.5 35.5,35.5 19.575,0 35.5,-15.925 35.5,-35.5 0,-19.575 -15.925,-35.5 -35.5,-35.5 z m 0,56 c -11.304,0 -20.5,-9.196 -20.5,-20.5 0,-11.304 9.196,-20.5 20.5,-20.5 11.304,0 20.5,9.196 20.5,20.5 0,11.304 -9.196,20.5 -20.5,20.5 z"
   id="path53" />
	<path
   d="m 287.5,278.75 c -12.958,0 -23.5,10.542 -23.5,23.5 0,12.958 10.542,23.5 23.5,23.5 12.958,0 23.5,-10.542 23.5,-23.5 0,-12.958 -10.542,-23.5 -23.5,-23.5 z m 0,32 c -4.687,0 -8.5,-3.813 -8.5,-8.5 0,-4.687 3.813,-8.5 8.5,-8.5 4.687,0 8.5,3.813 8.5,8.5 0,4.687 -3.813,8.5 -8.5,8.5 z"
   id="path55" />
	<path
   d="m 375.5,134.75 c -21.78,0 -39.5,17.72 -39.5,39.5 0,21.78 17.72,39.5 39.5,39.5 21.78,0 39.5,-17.72 39.5,-39.5 0,-21.78 -17.72,-39.5 -39.5,-39.5 z m 0,64 c -13.51,0 -24.5,-10.991 -24.5,-24.5 0,-13.509 10.99,-24.5 24.5,-24.5 13.51,0 24.5,10.991 24.5,24.5 0,13.509 -10.99,24.5 -24.5,24.5 z"
   id="path57" />
	<path
   d="m 445.424,159.001 -0.078,-0.003 c -1.838,-8.425 -5.168,-16.294 -9.695,-23.328 l 0.075,-0.081 c 5.824,-5.955 5.783,-15.538 -0.121,-21.443 -2.881,-2.88 -6.71,-4.467 -10.783,-4.467 -10e-4,0 0,0 -10e-4,0 -4.016,0 -7.795,1.542 -10.66,4.346 l -0.081,0.074 c -7.034,-4.527 -14.902,-7.857 -23.327,-9.695 l -0.003,-0.078 c -0.094,-8.328 -6.897,-15.076 -15.249,-15.077 -8.351,0 -15.155,6.748 -15.249,15.077 l -0.003,0.078 c -8.425,1.839 -16.294,5.168 -23.327,9.695 l -0.081,-0.075 c -5.957,-5.824 -15.537,-5.783 -21.444,0.122 -5.904,5.905 -5.944,15.487 -0.122,21.443 l 0.076,0.082 c -4.527,7.034 -7.856,14.903 -9.695,23.328 l -0.078,0.003 c -8.329,0.093 -15.076,6.898 -15.076,15.249 0,8.352 6.748,15.156 15.078,15.249 l 0.076,0.003 c 1.838,8.425 5.168,16.293 9.695,23.327 l -0.076,0.082 c -5.823,5.956 -5.782,15.538 0.122,21.442 2.88,2.881 6.71,4.467 10.783,4.467 10e-4,0 0,0 10e-4,0 4.016,0 7.794,-1.542 10.66,-4.345 l 0.081,-0.075 c 7.033,4.527 14.902,7.856 23.327,9.695 l 0.003,0.078 c 0.094,8.329 6.898,15.077 15.248,15.077 10e-4,0 10e-4,0 0.002,0 4.073,0 7.902,-1.586 10.782,-4.466 2.84,-2.84 4.422,-6.602 4.466,-10.61 l 0.003,-0.078 c 8.425,-1.838 16.293,-5.168 23.327,-9.695 l 0.082,0.075 c 5.956,5.824 15.538,5.782 21.443,-0.122 5.905,-5.905 5.945,-15.488 0.121,-21.443 l -0.075,-0.081 c 4.527,-7.034 7.856,-14.902 9.695,-23.327 l 0.076,-0.003 c 8.33,-0.093 15.078,-6.897 15.078,-15.249 0,-8.353 -6.747,-15.157 -15.076,-15.251 z M 375.5,230.75 c -31.204,0 -56.5,-25.296 -56.5,-56.5 0,-31.204 25.296,-56.5 56.5,-56.5 31.204,0 56.5,25.296 56.5,56.5 0,31.204 -25.296,56.5 -56.5,56.5 z"
   id="path59" />
</g>
</svg>
